<?xml version="1.0" standalone="no"?>
<!DOCTYPE svg PUBLIC "-//W3C//DTD SVG 20010904//EN"
 "http://www.w3.org/TR/2001/REC-SVG-20010904/DTD/svg10.dtd">
<svg version="1.0" xmlns="http://www.w3.org/2000/svg"
 width="177.000000pt" height="59.000000pt" viewBox="0 0 177.000000 59.000000"
 preserveAspectRatio="xMidYMid meet">

<g transform="translate(0.000000,59.000000) scale(0.100000,-0.100000)"
fill="#000000" stroke="none">
<path d="M414 373 c3 -10 13 -48 22 -85 14 -57 20 -68 38 -69 20 0 21 -1 1 -9
-19 -8 -19 -9 4 -9 20 -1 22 2 17 25 -9 35 14 139 27 122 6 -9 7 -8 3 5 -3 10
-6 23 -6 28 0 5 -6 9 -13 9 -9 0 -19 -23 -27 -57 -13 -56 -13 -57 -22 -28 -4
17 -6 38 -4 48 2 9 0 15 -5 11 -5 -3 -9 2 -9 10 0 9 -7 16 -16 16 -10 0 -14
-6 -10 -17z"/>
<path d="M550 305 l0 -85 34 0 c18 0 39 7 46 15 7 8 15 13 19 11 4 -3 6 20 5
50 -2 67 -22 94 -71 94 l-33 0 0 -85z m74 22 c12 -34 -3 -81 -27 -85 -15 -3
-17 5 -17 56 0 52 2 60 18 58 9 -2 21 -15 26 -29z"/>
<path d="M685 305 c0 -81 1 -85 23 -85 19 0 22 5 21 38 l-2 37 -7 -35 -7 -35
-2 43 c0 23 3 42 8 42 5 0 16 -19 23 -42 11 -32 21 -44 38 -46 18 -3 20 -6 9
-13 -11 -7 -11 -9 4 -9 9 0 17 3 17 8 0 12 -20 38 -21 27 0 -5 -8 8 -18 30
-17 39 -17 41 2 67 27 37 10 58 -47 58 l-41 0 0 -85z m59 59 c20 -8 11 -24
-15 -24 -19 0 -25 11 -12 23 8 8 8 8 27 1z"/>
<path d="M890 305 c0 -69 3 -85 15 -85 11 0 15 12 15 46 0 46 0 46 29 41 20
-4 33 -1 43 10 11 14 11 16 -1 9 -10 -7 -12 -3 -6 13 10 32 -11 51 -56 51
l-39 0 0 -85z m68 47 c2 -7 -6 -12 -17 -12 -21 0 -27 11 -14 24 9 9 26 2 31
-12z"/>
<path d="M1015 305 c0 -81 1 -85 23 -85 19 0 22 5 21 38 l-2 37 -7 -35 -7 -35
-2 43 c0 23 3 42 8 42 5 0 16 -19 23 -42 11 -32 21 -44 38 -46 18 -3 20 -6 9
-13 -11 -7 -10 -9 5 -9 12 0 16 5 12 16 -3 9 -6 18 -6 20 0 3 -4 3 -9 0 -4 -3
-15 13 -24 35 -15 38 -15 41 4 60 31 31 10 59 -44 59 l-42 0 0 -85z m63 47 c2
-7 -6 -12 -17 -12 -21 0 -27 11 -14 24 9 9 26 2 31 -12z"/>
<path d="M1160 375 c-7 -9 -15 -38 -18 -65 -4 -46 -2 -52 28 -80 18 -16 37
-30 44 -29 8 0 8 2 -1 5 -7 3 -2 14 13 29 46 46 24 155 -30 155 -13 0 -29 -7
-36 -15z m60 -77 c0 -35 -4 -50 -16 -55 -9 -3 -20 0 -25 8 -13 20 -11 93 3
107 21 21 38 -6 38 -60z"/>
<path d="M1320 315 c0 -60 -3 -75 -15 -75 -8 0 -15 5 -15 11 0 5 -4 7 -10 4
-18 -11 -11 -24 21 -41 30 -15 33 -15 53 6 15 16 17 24 9 27 -9 3 -13 28 -13
74 0 55 -3 69 -15 69 -12 0 -15 -15 -15 -75z m30 -90 c-7 -8 -17 -15 -23 -15
-6 0 -2 7 9 15 25 19 30 19 14 0z"/>
<path d="M1390 305 l0 -85 39 0 c49 0 64 18 19 22 -28 3 -34 7 -36 31 -3 22 1
30 17 34 27 7 27 33 0 33 -12 0 -19 5 -16 13 2 6 16 11 30 10 14 -1 28 5 31
13 4 11 -5 14 -39 14 l-45 0 0 -85z"/>
<path d="M1521 364 c-39 -50 -20 -126 37 -150 39 -16 52 -12 45 15 -3 13 -11
17 -25 13 -14 -3 -26 2 -34 13 -16 22 -19 89 -4 80 5 -3 7 0 4 8 -3 8 2 17 11
21 10 3 14 2 9 -5 -4 -7 2 -7 16 1 21 11 22 10 16 -6 -6 -15 -5 -16 5 -7 10
10 9 15 -1 28 -19 23 -56 18 -79 -11z"/>
<path d="M1620 376 c0 -8 5 -18 12 -22 7 -5 8 -3 3 6 -5 9 -4 11 3 6 7 -4 12
-35 12 -77 0 -55 3 -69 15 -69 12 0 15 14 15 70 0 58 3 68 15 64 10 -4 15 0
15 15 0 18 -6 21 -45 21 -33 0 -45 -4 -45 -14z"/>
<path d="M920 210 c-13 -8 -12 -10 3 -10 9 0 17 5 17 10 0 12 -1 12 -20 0z"/>
<path d="M1440 210 l-45 -7 42 -1 c23 -1 45 3 48 8 3 6 5 9 3 8 -2 0 -23 -4
-48 -8z"/>
<path d="M583 203 c9 -2 23 -2 30 0 6 3 -1 5 -18 5 -16 0 -22 -2 -12 -5z"/>
<path d="M708 203 c7 -3 16 -2 19 1 4 3 -2 6 -13 5 -11 0 -14 -3 -6 -6z"/>
<path d="M1038 203 c7 -3 16 -2 19 1 4 3 -2 6 -13 5 -11 0 -14 -3 -6 -6z"/>
<path d="M1678 203 c7 -3 16 -2 19 1 4 3 -2 6 -13 5 -11 0 -14 -3 -6 -6z"/>
</g>
</svg>
